<?xml version="1.0" encoding="UTF-8" standalone="no"?>
<!-- Created with Inkscape (http://www.inkscape.org/) -->

<svg
   width="91.791847mm"
   height="19.893894mm"
   viewBox="0 0 91.791847 19.893894"
   version="1.1"
   id="svg5"
   inkscape:version="1.1.1 (3bf5ae0d25, 2021-09-20)"
   sodipodi:docname="RhoLabIcon.svg"
   xmlns:inkscape="http://www.inkscape.org/namespaces/inkscape"
   xmlns:sodipodi="http://sodipodi.sourceforge.net/DTD/sodipodi-0.dtd"
   xmlns="http://www.w3.org/2000/svg"
   xmlns:svg="http://www.w3.org/2000/svg">
  <sodipodi:namedview
     id="namedview7"
     pagecolor="#ffffff"
     bordercolor="#666666"
     borderopacity="1.0"
     inkscape:pageshadow="2"
     inkscape:pageopacity="0.0"
     inkscape:pagecheckerboard="0"
     inkscape:document-units="mm"
     showgrid="false"
     fit-margin-top="0"
     fit-margin-left="0"
     fit-margin-right="0"
     fit-margin-bottom="0"
     inkscape:zoom="1.990573"
     inkscape:cx="199.69124"
     inkscape:cy="38.682328"
     inkscape:window-width="2880"
     inkscape:window-height="1526"
     inkscape:window-x="-11"
     inkscape:window-y="-11"
     inkscape:window-maximized="1"
     inkscape:current-layer="layer1" />
  <defs
     id="defs2" />
  <g
     inkscape:label="圖層 1"
     inkscape:groupmode="layer"
     id="layer1"
     transform="translate(-66.326216,-139.6994)">
    <path
       style="fill:#0b0b0b;stroke:none;stroke-width:0.176389"
       d="m 85.190427,152.66323 c -0.31468,-1.86701 0.51981,-4.07067 0.52934,-5.99723 0.009,-1.91232 0.47695,-4.38278 -0.45332,-6.16585 -0.68492,-1.31302 -2.87355,-0.92209 -3.15807,0.524 -0.22613,1.14953 0.87965,2.70473 1.06433,3.87796 0.4318,2.74282 0.3676,5.72042 0.003,8.46667 -0.19597,1.47426 -0.41151,2.94058 -0.6447,4.40972 -0.0893,0.5611 -0.26088,1.3268 0.40693,1.59915 1.06557,0.43479 2.16076,-0.67011 2.41882,-1.59915 0.54504,-1.96126 1.51042,-8.13849 4.94842,-7.05841 0.71666,0.22511 1.0712,0.86993 1.02517,1.59036 -0.1166,1.82686 -1.24478,3.79853 -0.49354,5.64427 0.64012,1.57268 3.02842,2.18828 3.95429,0.52158 0.86554,-1.55787 -1.28323,-2.11931 -1.56175,-3.52002 -0.40569,-2.03905 1.4448,-4.1076 0.23583,-6.17089 -2.50578,-4.27682 -7.48929,1.1576 -8.2744,3.87784 m 61.559713,-4.05695 c 0,-2.30187 0.25682,-4.77225 -0.0326,-7.05555 -0.13423,-1.05927 -0.94386,-1.91208 -2.08068,-1.48093 -1.08727,0.41234 -1.0601,1.75332 -1.06169,2.71565 v 7.76111 c 0,1.02263 0.23001,2.37543 -0.10389,3.35139 -0.43268,1.26488 -1.44639,2.04082 -1.0183,3.52778 0.43516,1.5113 2.08845,2.42623 3.59164,1.94151 0.5842,-0.18838 1.13506,-0.80028 1.76388,-0.78035 0.64347,0.0203 1.31181,0.57874 1.94028,0.75089 1.40476,0.38506 3.06211,0.32032 4.40972,-0.22825 7.38347,-3.00566 3.52126,-13.97897 -4.05694,-12.36364 -1.29593,0.27624 -2.36485,1.00737 -3.35139,1.86039 m -0.35278,-0.17639 h -2.46944 v -0.70555 h 1.23472 v -0.17639 h -1.23472 c 0.21943,-0.62015 0.6156,-0.63855 1.23472,-0.70556 V 146.666 h -1.23472 v -0.52916 h 1.23472 v -0.35278 h -1.23472 v -0.52917 h 1.23472 v -0.35278 h -1.23472 v -0.52916 h 1.23472 v -0.17639 H 143.9283 V 143.491 h 1.23472 v -0.17639 h -1.23472 v -0.70555 h 1.23472 v -0.17639 h -1.23472 v -0.70556 h 1.23472 v -0.17638 h -1.23472 c 0.26687,-1.31091 2.09567,-2.02844 2.47403,-0.35007 0.45843,2.03345 0.16951,5.14298 -0.005,7.22923 m -78.845818,-3.175 c 0.006,2.03433 0.1382,3.95773 -0.12672,5.99722 -0.26638,2.05088 -1.268198,5.24387 -0.552712,7.2286 0.573722,1.59138 3.419332,1.14494 3.854702,-0.35207 0.30009,-1.03206 -1.02664,-2.27366 -1.18204,-3.34875 -0.35982,-2.4892 0.24926,-5.28953 0.57774,-7.76111 0.10423,-0.78417 -0.0997,-1.90516 0.41676,-2.56947 0.73501,-0.94552 3.09763,-0.71928 4.067825,-0.34652 1.57908,0.60671 2.55301,2.1943 1.58586,3.79725 -0.52469,0.86965 -1.46911,1.43069 -2.467805,1.55552 -0.85379,0.10673 -1.95689,-0.15307 -2.46442,0.75741 -0.50782,0.91107 0.23674,2.1474 0.599,2.97942 1.02251,2.34862 2.938215,5.85488 5.745975,6.26057 1.33202,0.19244 3.7749,-1.21937 2.78377,-2.85309 -0.40464,-0.66675 -1.92319,-0.43109 -2.60738,-0.74683 -1.54856,-0.71455 -3.167,-2.45216 -3.704165,-4.07176 5.485745,-0.55038 7.164915,-8.97456 1.587495,-10.80396 -2.562415,-0.84046 -6.338235,-0.3569 -8.448155,1.38649 -0.976087,0.8065 -1.50797,3.09665 0.33427,2.89108 m 48.330558,-4.49206 c -3.18647,0.69238 -0.55757,5.0857 -0.72143,7.49067 -0.18186,2.67094 -1.51166,6.42021 -0.67928,8.99584 1.0407,3.22068 6.75711,2.49043 9.16182,1.50742 1.0063,-0.41134 2.85344,-1.94399 1.63301,-3.16424 -0.57468,-0.5745 -1.70427,0.10265 -2.33857,0.26405 -1.43863,0.36601 -4.0453,0.86519 -5.25145,-0.26423 -1.0033,-0.93945 -0.76517,-2.59433 -0.61965,-3.81106 0.29739,-2.48742 0.75177,-5.07938 0.75582,-7.58472 0.002,-1.38631 0.19491,-3.89767 -1.94027,-3.43373 m -13.22917,4.93616 c -8.831623,1.88422 -5.589763,15.56196 3.175,13.66437 8.96885,-1.94169 5.72011,-15.56212 -3.175,-13.66437 m 1.76389,12.96146 v -2.99861 c 2.73738,-3.6e-4 4.5623,-1.35396 4.58611,-4.23334 -1.85949,2.2e-4 -3.0353,0.39914 -4.58611,1.41111 -0.0312,-1.46194 -1.81398,-4.95575 -3.82182,-3.69233 -1.128363,0.70993 0.58544,2.80727 1.17669,3.27006 0.57785,0.45226 1.29399,0.62565 1.93957,0.95144 v 5.29167 c -7.738003,-0.632 -7.058553,-12.48996 0.70556,-12.3377 7.85618,0.15408 7.8583,12.316 0,12.3377 m 30.69165,-2.11667 c 0.008,0.91722 0.12842,1.89089 0.91952,2.49079 1.13541,0.86113 2.98873,0.38823 3.30729,-1.07915 0.26494,-1.2199 -1.21303,-1.39188 -1.70815,-2.29623 -0.69656,-1.27212 -0.42033,-2.91006 -0.0492,-4.23069 1.3432,-0.0631 1.40829,-2.10278 0.62971,-2.92975 -1.00577,-1.06826 -3.14167,-1.25391 -4.51027,-1.07614 -3.50554,0.45531 -6.45653,2.91936 -7.12275,6.47534 -0.70202,3.7465 2.10203,6.85835 5.88803,5.05742 1.15905,-0.55139 1.73814,-1.58274 2.64583,-2.41159 m 15.69862,-7.88007 c 5.82453,-0.97301 7.38822,7.91411 1.5875,8.8809 -5.64568,0.94104 -7.29122,-7.92808 -1.5875,-8.8809 m -18.69723,1.75954 c 0.77947,-0.11512 2.4795,-0.19167 2.99121,0.56659 1.26753,1.87853 -1.84009,5.20769 -3.52037,5.46945 -1.79987,0.28028 -3.06934,-1.4 -2.70157,-3.09051 0.35243,-1.61905 1.60426,-2.70529 3.23073,-2.94553 z"
       id="path290654" />
  </g>
</svg>
