<?xml version="1.0" encoding="UTF-8" standalone="no"?>
<!-- Created with Inkscape (http://www.inkscape.org/) -->

<svg
   width="13.72423mm"
   height="14.025486mm"
   viewBox="0 0 13.72423 14.025486"
   version="1.1"
   id="svg5"
   sodipodi:docname="favicon.svg"
   inkscape:export-filename="faviconnew.svg"
   inkscape:export-xdpi="96"
   inkscape:export-ydpi="96"
   inkscape:version="1.2.2 (b0a84865, 2022-12-01)"
   xmlns:inkscape="http://www.inkscape.org/namespaces/inkscape"
   xmlns:sodipodi="http://sodipodi.sourceforge.net/DTD/sodipodi-0.dtd"
   xmlns="http://www.w3.org/2000/svg"
   xmlns:svg="http://www.w3.org/2000/svg">
  <sodipodi:namedview
     id="namedview174"
     pagecolor="#ffffff"
     bordercolor="#000000"
     borderopacity="0.25"
     inkscape:showpageshadow="2"
     inkscape:pageopacity="0.0"
     inkscape:pagecheckerboard="0"
     inkscape:deskcolor="#d1d1d1"
     inkscape:document-units="mm"
     showgrid="false"
     inkscape:zoom="3.3733476"
     inkscape:cx="26.679729"
     inkscape:cy="40.167814"
     inkscape:window-width="1475"
     inkscape:window-height="769"
     inkscape:window-x="0"
     inkscape:window-y="38"
     inkscape:window-maximized="0"
     inkscape:current-layer="svg5" />
  <defs
     id="defs2" />
  <g
     id="layer1"
     transform="translate(-67.653314,-141.79624)">
    <path
       id="path290654"
       style="fill:#0b0b0b;stroke:none;stroke-width:0.176389"
       d="m 74.479428,141.79646 c -0.51023,0.004 -1.04448,0.0623 -1.60042,0.18086 -8.831483,1.88422 -5.589623,15.56174 3.175,13.66429 8.40816,-1.82034 6.0787,-13.90536 -1.57458,-13.84515 z m 0.16381,0.8046 c 7.85618,0.15408 7.8583,12.31605 0,12.33775 v -2.99879 c 2.73738,-3.6e-4 4.56196,-1.35395 4.58577,-4.23333 -1.85949,2.2e-4 -3.03496,0.39931 -4.58577,1.41128 -0.0312,-1.46194 -1.81428,-4.9557 -3.82198,-3.69228 -1.128419,0.70993 0.58542,2.8073 1.17667,3.27009 0.57785,0.45226 1.29383,0.62557 1.93941,0.95136 v 5.29167 c -7.737835,-0.632 -7.058045,-12.49001 0.7059,-12.33775 z" />
  </g>
  <path
     style="fill:#803300;fill-opacity:1;stroke:none;stroke-width:0.01;stroke-opacity:0.704"
     d="m 2.4200902,11.407916 8.8574348,-0.01736 C 9.7073773,12.987002 8.3383706,13.067021 6.9921971,13.15961 L 6.2782052,13.147299 C 4.459165,12.973345 3.2908904,12.301224 2.4200902,11.407916 Z"
     id="path937"
     sodipodi:nodetypes="ccccc" />
  <path
     style="fill:#a8f8ff;fill-opacity:1;stroke:none;stroke-width:0.00375445;stroke-opacity:0.704"
     d="M 8.4353146,42.093853 C 6.6776152,39.979043 5.4234924,37.739672 4.5073072,35.079972 1.9239898,27.580564 3.0547339,18.822233 7.4267889,12.466734 10.422651,8.1117571 14.620965,5.1530154 19.618964,3.8743566 c 2.373309,-0.6071735 3.170608,-0.6956824 6.258201,-0.6947281 2.207531,6.824e-4 3.017129,0.038311 3.923793,0.1823734 6.38654,1.0147718 11.363349,4.1496431 14.797927,9.3211531 2.05923,3.100622 3.288947,6.502596 3.835669,10.61126 0.202738,1.523589 0.228066,4.584823 0.05055,6.109197 -0.577297,4.957313 -2.399409,9.371815 -5.313301,12.87274 l -0.544626,0.654347 -3.209506,0.06568 c -1.765227,0.03612 -5.41105,0.06575 -8.101828,0.06584 l -4.892324,1.67e-4 V 40.742493 38.4226 l 1.266541,-0.06744 c 4.296212,-0.228765 7.682265,-1.252599 10.277203,-3.107494 3.56624,-2.549195 5.450638,-6.426221 5.805602,-11.944653 l 0.06654,-1.034439 -1.679884,0.06442 c -5.497805,0.210847 -9.545947,1.455582 -14.394958,4.426209 l -1.291375,0.791129 -0.06765,-0.65194 c -0.338543,-3.262429 -2.553609,-8.067628 -5.017242,-10.884031 -2.764995,-3.160915 -5.932328,-4.133582 -8.783997,-2.697504 -0.959998,0.483447 -1.617436,1.114159 -1.872792,1.796661 -0.260782,0.697002 -0.264375,1.745697 -0.0094,2.742652 0.642579,2.512459 3.521007,6.638495 5.861555,8.40215 0.957374,0.721403 2.066532,1.292664 4.376349,2.253993 1.010749,0.420666 2.050058,0.872279 2.309574,1.003585 l 0.471849,0.238736 v 6.653875 6.653873 H 16.490864 9.2402974 L 8.4353142,42.093853 Z"
     id="path1812"
     transform="scale(0.26458333)" />
  <path
     style="fill:#218000;fill-opacity:1;stroke:none;stroke-width:0.00404874;stroke-opacity:0.704"
     d="M 23.75533,36.287917 23.72774,29.565949 22.174456,28.904807 C 17.55882,26.940202 17.03182,26.638821 15.477641,25.07504 c -2.297039,-2.311232 -4.140919,-5.240141 -4.6965,-7.46015 -0.568819,-2.272908 0.322583,-3.727748 2.791947,-4.556687 3.134237,-1.052128 6.440379,0.801684 9.380531,5.25983 0.848885,1.287164 2.00615,3.672795 2.534067,5.223828 0.419816,1.23343 0.864568,3.205462 0.864568,3.833504 0,0.173762 0.02709,0.315931 0.06021,0.315931 0.03312,0 0.744145,-0.414842 1.580065,-0.92187 1.708133,-1.036074 3.822321,-2.097785 5.283016,-2.653046 2.779742,-1.056677 6.180798,-1.674111 9.221624,-1.674111 H 43.72929 L 43.6542,23.54028 c -0.177962,2.602148 -0.705457,4.725351 -1.659861,6.681055 -2.426624,4.972483 -7.186717,7.650854 -14.276263,8.032852 l -1.365818,0.07359 v 2.341052 2.341053 h -1.284672 -1.28467 z"
     id="path11510"
     transform="scale(0.26458333)" />
</svg>
