<?xml version="1.0" encoding="UTF-8" standalone="no"?>
<svg
   viewBox="0 0 64 64"
   enable-background="new 0 0 64 64"
   version="1.1"
   id="svg134"
   sodipodi:docname="swiper-left.svg"
   inkscape:version="1.2.2 (b0a84865, 2022-12-01)"
   xmlns:inkscape="http://www.inkscape.org/namespaces/inkscape"
   xmlns:sodipodi="http://sodipodi.sourceforge.net/DTD/sodipodi-0.dtd"
   xmlns="http://www.w3.org/2000/svg"
   xmlns:svg="http://www.w3.org/2000/svg">
  <defs
     id="defs138" />
  <sodipodi:namedview
     id="namedview136"
     pagecolor="#ffffff"
     bordercolor="#000000"
     borderopacity="0.25"
     inkscape:showpageshadow="2"
     inkscape:pageopacity="0.0"
     inkscape:pagecheckerboard="0"
     inkscape:deskcolor="#d1d1d1"
     showgrid="false"
     inkscape:zoom="12.234375"
     inkscape:cx="32"
     inkscape:cy="32"
     inkscape:window-width="1430"
     inkscape:window-height="935"
     inkscape:window-x="0"
     inkscape:window-y="25"
     inkscape:window-maximized="0"
     inkscape:current-layer="svg134" />
  <path
     d="M32,2C15.432,2,2,15.432,2,32c0,16.568,13.432,30,30,30s30-13.432,30-30C62,15.432,48.568,2,32,2z M49,37.428H30.307V48  L15,32l15.307-16v11.143H49V37.428z"
     fill="#00acc1"
     id="path132" />
  <path
     style="fill:#ffffff;stroke-width:0.00308927;stroke-opacity:0.704"
     d="M 22.681992,39.958747 C 18.523627,35.610787 15.121328,32.029351 15.121328,32 c 0,-0.02935 3.402299,-3.610786 7.560664,-7.958745 l 7.560664,-7.905381 0.02101,5.520824 0.02101,5.520824 h 9.317436 9.317436 v 5.108557 5.108557 h -9.317407 -9.317407 l -0.02103,5.234746 -0.02104,5.234747 z"
     id="path499" />
</svg>
