<?xml version="1.0" encoding="UTF-8" standalone="no"?>
<svg
   viewBox="0 0 64 64"
   enable-background="new 0 0 64 64"
   version="1.1"
   id="svg134"
   sodipodi:docname="swiper-right.svg"
   inkscape:version="1.2.2 (b0a84865, 2022-12-01)"
   xmlns:inkscape="http://www.inkscape.org/namespaces/inkscape"
   xmlns:sodipodi="http://sodipodi.sourceforge.net/DTD/sodipodi-0.dtd"
   xmlns="http://www.w3.org/2000/svg"
   xmlns:svg="http://www.w3.org/2000/svg">
  <defs
     id="defs138" />
  <sodipodi:namedview
     id="namedview136"
     pagecolor="#ffffff"
     bordercolor="#000000"
     borderopacity="0.25"
     inkscape:showpageshadow="2"
     inkscape:pageopacity="0.0"
     inkscape:pagecheckerboard="0"
     inkscape:deskcolor="#d1d1d1"
     showgrid="false"
     inkscape:zoom="12.234375"
     inkscape:cx="32"
     inkscape:cy="32"
     inkscape:window-width="1430"
     inkscape:window-height="935"
     inkscape:window-x="0"
     inkscape:window-y="25"
     inkscape:window-maximized="0"
     inkscape:current-layer="svg134" />
  <path
     d="M32,2C15.432,2,2,15.432,2,32c0,16.568,13.432,30,30,30s30-13.432,30-30C62,15.432,48.568,2,32,2z M33.693,48V37.428H15  V27.143h18.693V16L49,32L33.693,48z"
     fill="#00acc1"
     id="path132" />
  <path
     style="fill:#ffffff;stroke-width:0.00308927;stroke-opacity:0.704"
     d="m 33.718853,42.646232 -0.0024,-5.251596 H 24.398467 15.08046 v -5.108557 -5.108557 h 9.317436 9.317436 l 0.02101,-5.522258 0.02101,-5.522258 7.560664,7.905152 c 4.158365,4.347834 7.560664,7.931094 7.560664,7.9628 0,0.04437 -10.970451,11.555694 -14.526358,15.242548 l -0.631083,0.654323 z"
     id="path430" />
</svg>
